<?xml version="1.0" standalone="no"?>
<!DOCTYPE svg PUBLIC "-//W3C//DTD SVG 20010904//EN"
 "http://www.w3.org/TR/2001/REC-SVG-20010904/DTD/svg10.dtd">
<svg version="1.0" xmlns="http://www.w3.org/2000/svg"
 width="500.000000pt" height="500.000000pt" viewBox="0 0 500.000000 500.000000"
 preserveAspectRatio="xMidYMid meet">
<metadata>
Created by potrace 1.14, written by Peter Selinger 2001-2017
</metadata>
<g transform="translate(0.000000,500.000000) scale(0.100000,-0.100000)"
fill="#000000" stroke="none">
<path d="M2172 3635 c-76 -33 -200 -187 -254 -316 -52 -125 -50 -205 9 -269
l35 -40 -52 -97 c-28 -54 -168 -334 -311 -622 -177 -359 -259 -533 -259 -556
0 -36 25 -65 57 -65 11 0 35 10 54 23 38 25 78 88 486 765 184 306 272 442
283 442 10 0 34 -7 53 -15 25 -10 72 -15 151 -15 107 0 116 -1 130 -22 23 -32
19 -104 -7 -168 -13 -30 -80 -156 -149 -280 -166 -298 -183 -341 -182 -450 0
-76 4 -93 35 -160 41 -87 93 -139 178 -178 73 -34 187 -36 273 -5 249 91 584
425 879 876 43 65 81 132 84 147 16 71 -51 115 -106 71 -14 -11 -66 -75 -114
-143 -174 -240 -398 -486 -540 -593 -99 -75 -168 -105 -239 -105 -34 0 -72 6
-85 13 -34 17 -54 79 -48 149 6 73 46 148 203 384 67 101 132 210 145 241 46
123 11 314 -76 411 -59 66 -94 77 -204 67 -112 -11 -156 -10 -192 5 l-29 13
20 33 c75 128 61 346 -27 426 -50 45 -139 60 -201 33z"/>
<path d="M1840 765 c0 -138 1 -145 20 -145 18 0 20 7 20 65 0 58 2 65 20 65
23 0 43 -18 87 -83 27 -39 38 -47 63 -47 18 0 29 4 25 10 -3 6 -12 10 -19 10
-7 0 -31 27 -54 60 -23 34 -35 60 -28 60 23 0 56 45 56 77 0 50 -38 73 -121
73 l-69 0 0 -145z m134 109 c9 -8 16 -28 16 -44 0 -35 -32 -60 -77 -60 l-33 0
0 60 0 60 39 0 c23 0 46 -7 55 -16z"/>
<path d="M2450 903 c0 -4 26 -70 57 -146 38 -92 62 -137 71 -135 18 4 135 288
119 288 -7 0 -32 -52 -57 -115 -25 -63 -47 -115 -51 -115 -3 0 -26 51 -51 113
-36 89 -50 113 -67 115 -11 2 -21 0 -21 -5z"/>
<path d="M2159 817 c-26 -20 -39 -53 -39 -97 0 -60 41 -100 103 -100 31 0 52
6 68 21 26 22 23 22 -43 -4 -23 -9 -32 -8 -55 9 -16 12 -29 33 -31 47 l-3 27
75 0 76 0 0 29 c0 44 -43 81 -94 81 -22 0 -48 -6 -57 -13z m94 -14 c8 -10 19
-30 22 -45 l7 -28 -61 0 c-57 0 -61 2 -61 23 0 56 59 87 93 50z"/>
<path d="M2365 820 c-8 -13 3 -30 20 -30 14 0 27 24 18 34 -10 9 -31 7 -38 -4z"/>
<path d="M2760 742 c0 -73 3 -92 18 -105 22 -20 82 -22 101 -4 11 10 14 10 18
0 3 -7 11 -13 19 -13 11 0 14 21 14 105 0 87 -3 105 -15 105 -12 0 -15 -14
-15 -67 0 -84 -15 -117 -55 -121 -43 -5 -55 18 -55 110 0 63 -3 78 -15 78 -12
0 -15 -16 -15 -88z"/>
<path d="M3029 817 c-26 -20 -39 -53 -39 -97 0 -60 41 -100 103 -100 31 0 52
6 68 21 26 22 23 22 -43 -4 -23 -9 -32 -8 -55 9 -16 12 -29 33 -31 47 l-3 27
75 0 76 0 0 29 c0 44 -43 81 -94 81 -22 0 -48 -6 -57 -13z m94 -14 c8 -10 19
-30 22 -45 l7 -28 -61 0 c-57 0 -61 2 -61 23 0 56 59 87 93 50z"/>
<path d="M2367 653 c-14 -13 -6 -33 13 -33 13 0 20 7 20 20 0 19 -20 27 -33
13z"/>
</g>
</svg>
